<svg width="70" height="47" viewBox="0 0 70 47" fill="none" xmlns="http://www.w3.org/2000/svg">
<path d="M29.3372 31.6004L15.736 25.0014L12.3779 35.1845L25.9791 41.7835L29.3372 31.6004Z" fill="#533BEB"/>
<path d="M40.5188 0H26.9321C25.4313 0 23.8998 1.17515 23.5114 2.62478L12.5398 43.5713C12.1514 45.0209 13.0531 46.1961 14.5539 46.1961H25.4233C26.9241 46.1961 28.4556 45.0209 28.844 43.5713L30.11 38.8467C30.4984 37.3971 32.0302 36.2391 33.5679 36.0567C38.0423 35.526 42.5725 33.7331 46.4534 30.9173C51.1345 27.5209 54.4874 22.9143 55.7745 18.111C57.0615 13.3076 56.1773 8.70104 53.3163 5.30458C50.4553 1.90814 45.8519 2.68418e-05 40.5188 0Z" fill="white"/>
<path d="M12.5245 34.751L31.7925 25.4026C32.6888 24.9677 33.6168 25.2258 33.8652 25.9791L34.6433 28.3384C34.9895 29.3883 36.5584 29.3883 37.4672 28.3384L52.3186 11.1824C53.2275 10.1325 52.7947 8.82011 51.5396 8.82011L31.0307 8.82012C29.7756 8.82012 28.6395 10.1325 28.9858 11.1824L29.6076 13.0682C29.856 13.8214 29.3308 14.7846 28.4344 15.2195L16.1626 21.1735L12.5245 34.751Z" fill="url(#paint0_linear_1188_1857)"/>
<defs>
<linearGradient id="paint0_linear_1188_1857" x1="53.1098" y1="8.82226" x2="20.5514" y2="19.8158" gradientUnits="userSpaceOnUse">
<stop stop-color="#2B99FF"/>
<stop offset="1" stop-color="#725BFF"/>
</linearGradient>
</defs>
</svg>
